<svg width="640" height="480" viewBox="0 0 640 480" xmlns="http://www.w3.org/2000/svg">
  <rect width="640" height="480" fill="#0B5BD8" />
  <rect width="640" height="480" fill="url(#grad)" opacity="0.55" />
  <defs>
    <linearGradient id="grad" x1="0" y1="0" x2="640" y2="480" gradientUnits="userSpaceOnUse">
      <stop offset="0" stop-color="#10213F" stop-opacity="0.0" />
      <stop offset="1" stop-color="#10213F" stop-opacity="0.35" />
    </linearGradient>
  </defs>
  <polygon points="0,16 8,0 16,16" fill="#EAF3FF" /><polygon points="16,0 24,16 32,0" fill="#FFFFFF" /><polygon points="32,16 40,0 48,16" fill="#EAF3FF" /><polygon points="48,0 56,16 64,0" fill="#FFFFFF" /><polygon points="64,16 72,0 80,16" fill="#EAF3FF" /><polygon points="80,0 88,16 96,0" fill="#FFFFFF" /><polygon points="96,16 104,0 112,16" fill="#EAF3FF" /><polygon points="112,0 120,16 128,0" fill="#FFFFFF" /><polygon points="128,16 136,0 144,16" fill="#EAF3FF" /><polygon points="144,0 152,16 160,0" fill="#FFFFFF" /><polygon points="160,16 168,0 176,16" fill="#EAF3FF" /><polygon points="176,0 184,16 192,0" fill="#FFFFFF" /><polygon points="192,16 200,0 208,16" fill="#EAF3FF" /><polygon points="208,0 216,16 224,0" fill="#FFFFFF" /><polygon points="224,16 232,0 240,16" fill="#EAF3FF" /><polygon points="240,0 248,16 256,0" fill="#FFFFFF" /><polygon points="256,16 264,0 272,16" fill="#EAF3FF" /><polygon points="272,0 280,16 288,0" fill="#FFFFFF" /><polygon points="288,16 296,0 304,16" fill="#EAF3FF" /><polygon points="304,0 312,16 320,0" fill="#FFFFFF" /><polygon points="320,16 328,0 336,16" fill="#EAF3FF" /><polygon points="336,0 344,16 352,0" fill="#FFFFFF" /><polygon points="352,16 360,0 368,16" fill="#EAF3FF" /><polygon points="368,0 376,16 384,0" fill="#FFFFFF" /><polygon points="384,16 392,0 400,16" fill="#EAF3FF" /><polygon points="400,0 408,16 416,0" fill="#FFFFFF" /><polygon points="416,16 424,0 432,16" fill="#EAF3FF" /><polygon points="432,0 440,16 448,0" fill="#FFFFFF" /><polygon points="448,16 456,0 464,16" fill="#EAF3FF" /><polygon points="464,0 472,16 480,0" fill="#FFFFFF" /><polygon points="480,16 488,0 496,16" fill="#EAF3FF" /><polygon points="496,0 504,16 512,0" fill="#FFFFFF" /><polygon points="512,16 520,0 528,16" fill="#EAF3FF" /><polygon points="528,0 536,16 544,0" fill="#FFFFFF" /><polygon points="544,16 552,0 560,16" fill="#EAF3FF" /><polygon points="560,0 568,16 576,0" fill="#FFFFFF" /><polygon points="576,16 584,0 592,16" fill="#EAF3FF" /><polygon points="592,0 600,16 608,0" fill="#FFFFFF" /><polygon points="608,16 616,0 624,16" fill="#EAF3FF" /><polygon points="624,0 632,16 640,0" fill="#FFFFFF" />
  <circle cx="320" cy="176" r="86" fill="#FFFFFF" opacity="0.14" />
  <circle cx="320" cy="176" r="86" fill="none" stroke="#FFFFFF" stroke-opacity="0.35" stroke-width="2" />
  <g transform="translate(254 110) scale(0.66)" fill="#FFFFFF" stroke="#FFFFFF" stroke-linecap="round"><path d="M40 156 V54 Q70 38 100 54 V156 Q70 140 40 156 Z" stroke-width="8" stroke-linejoin="round" /><path d="M160 156 V54 Q130 38 100 54 V156 Q130 140 160 156 Z" fill="none" stroke-width="8" stroke-linejoin="round" /></g>
  <text x="320" y="316" text-anchor="middle" font-family="'Sora', 'Segoe UI', sans-serif" font-size="30" font-weight="700" fill="#FFFFFF">Library reading hall</text>
  
  <polygon fill="#10213F" opacity="0.85" points="0,480 0.0,380.0 53.3,435.0 106.7,380.0 160.0,435.0 213.3,380.0 266.7,435.0 320.0,380.0 373.3,435.0 426.7,380.0 480.0,435.0 533.3,380.0 586.7,435.0 640.0,380.0 640,480" />
  <polygon points="0,480 8,464 16,480" fill="#FFFFFF" /><polygon points="16,464 24,480 32,464" fill="#EAF3FF" /><polygon points="32,480 40,464 48,480" fill="#FFFFFF" /><polygon points="48,464 56,480 64,464" fill="#EAF3FF" /><polygon points="64,480 72,464 80,480" fill="#FFFFFF" /><polygon points="80,464 88,480 96,464" fill="#EAF3FF" /><polygon points="96,480 104,464 112,480" fill="#FFFFFF" /><polygon points="112,464 120,480 128,464" fill="#EAF3FF" /><polygon points="128,480 136,464 144,480" fill="#FFFFFF" /><polygon points="144,464 152,480 160,464" fill="#EAF3FF" /><polygon points="160,480 168,464 176,480" fill="#FFFFFF" /><polygon points="176,464 184,480 192,464" fill="#EAF3FF" /><polygon points="192,480 200,464 208,480" fill="#FFFFFF" /><polygon points="208,464 216,480 224,464" fill="#EAF3FF" /><polygon points="224,480 232,464 240,480" fill="#FFFFFF" /><polygon points="240,464 248,480 256,464" fill="#EAF3FF" /><polygon points="256,480 264,464 272,480" fill="#FFFFFF" /><polygon points="272,464 280,480 288,464" fill="#EAF3FF" /><polygon points="288,480 296,464 304,480" fill="#FFFFFF" /><polygon points="304,464 312,480 320,464" fill="#EAF3FF" /><polygon points="320,480 328,464 336,480" fill="#FFFFFF" /><polygon points="336,464 344,480 352,464" fill="#EAF3FF" /><polygon points="352,480 360,464 368,480" fill="#FFFFFF" /><polygon points="368,464 376,480 384,464" fill="#EAF3FF" /><polygon points="384,480 392,464 400,480" fill="#FFFFFF" /><polygon points="400,464 408,480 416,464" fill="#EAF3FF" /><polygon points="416,480 424,464 432,480" fill="#FFFFFF" /><polygon points="432,464 440,480 448,464" fill="#EAF3FF" /><polygon points="448,480 456,464 464,480" fill="#FFFFFF" /><polygon points="464,464 472,480 480,464" fill="#EAF3FF" /><polygon points="480,480 488,464 496,480" fill="#FFFFFF" /><polygon points="496,464 504,480 512,464" fill="#EAF3FF" /><polygon points="512,480 520,464 528,480" fill="#FFFFFF" /><polygon points="528,464 536,480 544,464" fill="#EAF3FF" /><polygon points="544,480 552,464 560,480" fill="#FFFFFF" /><polygon points="560,464 568,480 576,464" fill="#EAF3FF" /><polygon points="576,480 584,464 592,480" fill="#FFFFFF" /><polygon points="592,464 600,480 608,464" fill="#EAF3FF" /><polygon points="608,480 616,464 624,480" fill="#FFFFFF" /><polygon points="624,464 632,480 640,464" fill="#EAF3FF" />
</svg>
