<svg width="1600" height="700" viewBox="0 0 1600 700" xmlns="http://www.w3.org/2000/svg">
  <rect width="1600" height="700" fill="#10213F" />
  <rect width="1600" height="700" fill="url(#grad)" />
  <defs>
    <linearGradient id="grad" x1="0" y1="0" x2="1600" y2="700" gradientUnits="userSpaceOnUse">
      <stop offset="0" stop-color="#0B5BD8" stop-opacity="0.5" />
      <stop offset="1" stop-color="#10213F" stop-opacity="0.9" />
    </linearGradient>
  </defs>
  <polygon points="0,20 10,0 20,20" fill="#0F6CFF" /><polygon points="20,0 30,20 40,0" fill="#FFFFFF" /><polygon points="40,20 50,0 60,20" fill="#0F6CFF" /><polygon points="60,0 70,20 80,0" fill="#FFFFFF" /><polygon points="80,20 90,0 100,20" fill="#0F6CFF" /><polygon points="100,0 110,20 120,0" fill="#FFFFFF" /><polygon points="120,20 130,0 140,20" fill="#0F6CFF" /><polygon points="140,0 150,20 160,0" fill="#FFFFFF" /><polygon points="160,20 170,0 180,20" fill="#0F6CFF" /><polygon points="180,0 190,20 200,0" fill="#FFFFFF" /><polygon points="200,20 210,0 220,20" fill="#0F6CFF" /><polygon points="220,0 230,20 240,0" fill="#FFFFFF" /><polygon points="240,20 250,0 260,20" fill="#0F6CFF" /><polygon points="260,0 270,20 280,0" fill="#FFFFFF" /><polygon points="280,20 290,0 300,20" fill="#0F6CFF" /><polygon points="300,0 310,20 320,0" fill="#FFFFFF" /><polygon points="320,20 330,0 340,20" fill="#0F6CFF" /><polygon points="340,0 350,20 360,0" fill="#FFFFFF" /><polygon points="360,20 370,0 380,20" fill="#0F6CFF" /><polygon points="380,0 390,20 400,0" fill="#FFFFFF" /><polygon points="400,20 410,0 420,20" fill="#0F6CFF" /><polygon points="420,0 430,20 440,0" fill="#FFFFFF" /><polygon points="440,20 450,0 460,20" fill="#0F6CFF" /><polygon points="460,0 470,20 480,0" fill="#FFFFFF" /><polygon points="480,20 490,0 500,20" fill="#0F6CFF" /><polygon points="500,0 510,20 520,0" fill="#FFFFFF" /><polygon points="520,20 530,0 540,20" fill="#0F6CFF" /><polygon points="540,0 550,20 560,0" fill="#FFFFFF" /><polygon points="560,20 570,0 580,20" fill="#0F6CFF" /><polygon points="580,0 590,20 600,0" fill="#FFFFFF" /><polygon points="600,20 610,0 620,20" fill="#0F6CFF" /><polygon points="620,0 630,20 640,0" fill="#FFFFFF" /><polygon points="640,20 650,0 660,20" fill="#0F6CFF" /><polygon points="660,0 670,20 680,0" fill="#FFFFFF" /><polygon points="680,20 690,0 700,20" fill="#0F6CFF" /><polygon points="700,0 710,20 720,0" fill="#FFFFFF" /><polygon points="720,20 730,0 740,20" fill="#0F6CFF" /><polygon points="740,0 750,20 760,0" fill="#FFFFFF" /><polygon points="760,20 770,0 780,20" fill="#0F6CFF" /><polygon points="780,0 790,20 800,0" fill="#FFFFFF" /><polygon points="800,20 810,0 820,20" fill="#0F6CFF" /><polygon points="820,0 830,20 840,0" fill="#FFFFFF" /><polygon points="840,20 850,0 860,20" fill="#0F6CFF" /><polygon points="860,0 870,20 880,0" fill="#FFFFFF" /><polygon points="880,20 890,0 900,20" fill="#0F6CFF" /><polygon points="900,0 910,20 920,0" fill="#FFFFFF" /><polygon points="920,20 930,0 940,20" fill="#0F6CFF" /><polygon points="940,0 950,20 960,0" fill="#FFFFFF" /><polygon points="960,20 970,0 980,20" fill="#0F6CFF" /><polygon points="980,0 990,20 1000,0" fill="#FFFFFF" /><polygon points="1000,20 1010,0 1020,20" fill="#0F6CFF" /><polygon points="1020,0 1030,20 1040,0" fill="#FFFFFF" /><polygon points="1040,20 1050,0 1060,20" fill="#0F6CFF" /><polygon points="1060,0 1070,20 1080,0" fill="#FFFFFF" /><polygon points="1080,20 1090,0 1100,20" fill="#0F6CFF" /><polygon points="1100,0 1110,20 1120,0" fill="#FFFFFF" /><polygon points="1120,20 1130,0 1140,20" fill="#0F6CFF" /><polygon points="1140,0 1150,20 1160,0" fill="#FFFFFF" /><polygon points="1160,20 1170,0 1180,20" fill="#0F6CFF" /><polygon points="1180,0 1190,20 1200,0" fill="#FFFFFF" /><polygon points="1200,20 1210,0 1220,20" fill="#0F6CFF" /><polygon points="1220,0 1230,20 1240,0" fill="#FFFFFF" /><polygon points="1240,20 1250,0 1260,20" fill="#0F6CFF" /><polygon points="1260,0 1270,20 1280,0" fill="#FFFFFF" /><polygon points="1280,20 1290,0 1300,20" fill="#0F6CFF" /><polygon points="1300,0 1310,20 1320,0" fill="#FFFFFF" /><polygon points="1320,20 1330,0 1340,20" fill="#0F6CFF" /><polygon points="1340,0 1350,20 1360,0" fill="#FFFFFF" /><polygon points="1360,20 1370,0 1380,20" fill="#0F6CFF" /><polygon points="1380,0 1390,20 1400,0" fill="#FFFFFF" /><polygon points="1400,20 1410,0 1420,20" fill="#0F6CFF" /><polygon points="1420,0 1430,20 1440,0" fill="#FFFFFF" /><polygon points="1440,20 1450,0 1460,20" fill="#0F6CFF" /><polygon points="1460,0 1470,20 1480,0" fill="#FFFFFF" /><polygon points="1480,20 1490,0 1500,20" fill="#0F6CFF" /><polygon points="1500,0 1510,20 1520,0" fill="#FFFFFF" /><polygon points="1520,20 1530,0 1540,20" fill="#0F6CFF" /><polygon points="1540,0 1550,20 1560,0" fill="#FFFFFF" /><polygon points="1560,20 1570,0 1580,20" fill="#0F6CFF" /><polygon points="1580,0 1590,20 1600,0" fill="#FFFFFF" />
  <g transform="translate(690 170) scale(1.1)" fill="#FFFFFF" stroke="#FFFFFF" stroke-linecap="round"><path d="M26 92 L100 36 L174 92" fill="none" stroke-width="12" stroke-linecap="round" stroke-linejoin="round" /><rect x="42" y="92" width="116" height="70" fill="none" stroke-width="10" /><rect x="88" y="122" width="24" height="40" stroke="none" /><rect x="54" y="106" width="20" height="20" fill="none" stroke-width="7" /><rect x="126" y="106" width="20" height="20" fill="none" stroke-width="7" /></g>
  <text x="800" y="540" text-anchor="middle" font-family="'Sora', 'Segoe UI', sans-serif" font-size="56" font-weight="700" fill="#FFFFFF">Rambura Garçons TVET School</text>
  <text x="800" y="585" text-anchor="middle" font-family="'Inter', 'Segoe UI', sans-serif" font-size="24" fill="#EAF3FF" opacity="0.9">Nyabihu District, Rwanda</text>
  <polygon fill="#1A2E4F" opacity="0.85" points="0,700 0.0,610.0 133.3,659.5 266.7,610.0 400.0,659.5 533.3,610.0 666.7,659.5 800.0,610.0 933.3,659.5 1066.7,610.0 1200.0,659.5 1333.3,610.0 1466.7,659.5 1600.0,610.0 1600,700" />
</svg>
